<svg xmlns="http://www.w3.org/2000/svg" width="800" height="800" viewBox="0 0 800 800" version="1.1"><path d="M 475.958 499.250 C 478.410 501.863, 480.548 504, 480.708 504 C 481.459 504, 480.665 503.102, 476.250 498.958 L 471.500 494.500 475.958 499.250 M 576.971 691.750 L 570.500 698.500 577.250 692.029 C 583.520 686.018, 584.457 685, 583.721 685 C 583.568 685, 580.530 688.038, 576.971 691.750" stroke="none" fill="#3004dc" fill-rule="evenodd"/><path d="M 383 49.028 C 348.392 52.287, 317.964 60.511, 291 73.890 C 278.601 80.043, 263 89.630, 263 91.096 C 263 91.593, 262.311 92, 261.469 92 C 260.626 92, 259.678 92.675, 259.362 93.500 C 259.045 94.325, 258.163 95, 257.401 95 C 256.640 95, 255.455 95.900, 254.768 97 C 254.081 98.100, 253.075 99, 252.531 99 C 250.277 99, 226.995 124.198, 221.082 133.038 C 209.208 150.790, 201.094 170.775, 197.346 191.500 C 194.820 205.468, 194.855 240.236, 197.409 254.500 C 203.952 291.043, 223.049 322.485, 254.896 349.152 C 278.501 368.917, 305.394 386.448, 365.442 421.214 C 447.030 468.451, 488.103 502.787, 504.540 537.500 C 509.826 548.663, 512 558.172, 512 570.134 C 512 604.081, 489.065 630.456, 450.870 640.430 C 434.664 644.662, 426.871 645.455, 401.500 645.454 C 370.867 645.452, 353.221 643.155, 328.287 635.925 C 299.890 627.690, 266.127 610.973, 244.380 594.380 C 239.695 590.805, 235.243 588.020, 234.487 588.190 C 233.297 588.458, 192.024 645.987, 179.184 665.275 L 174.673 672.050 177.587 675.127 C 183.822 681.713, 210.153 698.968, 229.343 709.041 C 269.263 729.998, 312.843 743.829, 357 749.556 C 373.921 751.751, 412.100 752.564, 429.046 751.091 C 480.089 746.654, 518.412 734.622, 551.456 712.660 C 566.967 702.350, 587.527 682.137, 596.883 668 C 609.173 649.429, 617.710 627.966, 622.201 604.350 C 624.152 594.092, 624.452 589.276, 624.437 568.500 C 624.421 547.924, 624.090 542.645, 622.115 531.500 C 615.383 493.523, 599.285 463.785, 568.055 431.633 C 541.603 404.399, 506.364 378.541, 444.500 340.970 C 359.494 289.344, 343.657 278.732, 327.456 262.540 C 318.797 253.886, 313.359 245.752, 310.379 237 C 307.563 228.728, 307.736 209.928, 310.715 200.458 C 322.662 162.490, 376.641 142.451, 438.550 153.002 C 468.905 158.176, 506.606 171.370, 525.418 183.404 C 528.608 185.445, 531.314 186.977, 531.430 186.807 C 531.547 186.638, 543.365 168.725, 557.694 147 C 582.786 108.954, 587 102.217, 587 100.142 C 587 99.616, 578.112 94.690, 567.250 89.196 C 526.223 68.447, 491.616 57.420, 447.056 50.899 C 431.430 48.613, 397.830 47.631, 383 49.028" stroke="none" fill="#2c04dc" fill-rule="evenodd"/></svg>